<svg width="171" height="170" viewBox="0 0 171 170" fill="none" xmlns="http://www.w3.org/2000/svg">
<circle cx="85.125" cy="85" r="85" transform="rotate(-90 85.125 85)" fill="#E0DFDF"/>
<path d="M85.125 2C85.125 0.895428 86.0207 -0.00246042 87.1249 0.02351C107.031 0.491649 126.167 7.93684 141.169 21.0936C156.674 34.6904 166.706 53.46 169.398 73.9053C172.089 94.3505 167.257 115.077 155.8 132.223C144.343 149.37 127.044 161.766 107.125 167.104C87.2056 172.441 66.0255 170.355 47.5305 161.234C29.0354 152.113 14.4868 136.58 6.59524 117.528C-1.29634 98.4761 -1.99269 77.205 4.63593 57.6777C11.05 38.7823 23.8993 22.7668 40.9048 12.4082C41.8481 11.8335 43.0727 12.1633 43.625 13.1199L81.3929 78.5359C82.416 80.308 85.125 79.5821 85.125 77.5359L85.125 2Z" fill="#05E300"/>
<circle cx="85.1252" cy="85" r="74.8" fill="white"/>
<path d="M58.2202 71.4602C59.5668 71.4602 60.8622 71.6861 62.1065 72.1378C63.3594 72.5895 64.4759 73.3097 65.456 74.2983C66.4446 75.2869 67.2244 76.5994 67.7955 78.2358C68.375 79.8636 68.669 81.8622 68.6776 84.2315C68.6776 86.456 68.4261 88.4418 67.9233 90.1889C67.429 91.9276 66.7173 93.4062 65.7884 94.625C64.8594 95.8438 63.7386 96.7727 62.4261 97.4119C61.1136 98.0426 59.6477 98.358 58.0284 98.358C56.2813 98.358 54.7386 98.0213 53.4006 97.348C52.0625 96.6662 50.9844 95.7415 50.1662 94.5739C49.3565 93.3977 48.8665 92.0767 48.696 90.6108H54.1548C54.3679 91.5653 54.8153 92.3068 55.4972 92.8352C56.179 93.3551 57.0227 93.6151 58.0284 93.6151C59.733 93.6151 61.0284 92.8736 61.9148 91.3906C62.8011 89.8991 63.2486 87.858 63.2571 85.267H63.0781C62.6861 86.0341 62.1577 86.6946 61.4929 87.2486C60.8281 87.794 60.0653 88.2159 59.2045 88.5142C58.3523 88.8125 57.4446 88.9616 56.4815 88.9616C54.9389 88.9616 53.5625 88.5994 52.3523 87.875C51.142 87.1506 50.1875 86.1534 49.4886 84.8835C48.7898 83.6136 48.4403 82.1648 48.4403 80.5369C48.4318 78.7812 48.8366 77.2173 49.6548 75.8452C50.473 74.473 51.6151 73.3991 53.081 72.6236C54.5554 71.8395 56.2685 71.4517 58.2202 71.4602ZM58.2585 75.8068C57.3977 75.8068 56.6307 76.0114 55.9574 76.4205C55.2926 76.8295 54.7642 77.3793 54.3722 78.0696C53.9886 78.7599 53.8011 79.5312 53.8097 80.3835C53.8097 81.2443 53.9972 82.0199 54.3722 82.7102C54.7557 83.392 55.2756 83.9375 55.9318 84.3466C56.5966 84.7472 57.3551 84.9474 58.2074 84.9474C58.8466 84.9474 59.4389 84.8281 59.9844 84.5895C60.5298 84.3509 61.0028 84.0227 61.4034 83.6051C61.8125 83.179 62.1321 82.6889 62.3622 82.1349C62.5923 81.581 62.7074 80.9929 62.7074 80.3707C62.6989 79.544 62.5028 78.7855 62.1193 78.0952C61.7358 77.4048 61.2074 76.8509 60.5341 76.4332C59.8608 76.0156 59.1023 75.8068 58.2585 75.8068ZM82.0753 98.358C80.2685 98.358 78.6577 98.0256 77.2429 97.3608C75.8366 96.696 74.7202 95.7798 73.8935 94.6122C73.0668 93.4446 72.6364 92.1065 72.6023 90.598H77.9716C78.0313 91.6122 78.4574 92.4347 79.25 93.0653C80.0426 93.696 80.9844 94.0114 82.0753 94.0114C82.9446 94.0114 83.7116 93.8196 84.3764 93.4361C85.0497 93.044 85.5739 92.5028 85.9489 91.8125C86.3324 91.1136 86.5241 90.3125 86.5241 89.4091C86.5241 88.4886 86.3281 87.679 85.9361 86.9801C85.5526 86.2812 85.0199 85.7358 84.3381 85.3438C83.6563 84.9517 82.8764 84.7514 81.9986 84.7429C81.2315 84.7429 80.4858 84.9006 79.7614 85.2159C79.0455 85.5312 78.4872 85.9616 78.0866 86.5071L73.1648 85.625L74.4048 71.8182H90.4105V76.3438H78.9688L78.2912 82.902H78.4446C78.9048 82.2543 79.5994 81.7173 80.5284 81.2912C81.4574 80.8651 82.4972 80.652 83.6477 80.652C85.2244 80.652 86.6307 81.0227 87.8665 81.7642C89.1023 82.5057 90.0781 83.5241 90.794 84.8196C91.5099 86.1065 91.8636 87.5895 91.8551 89.2685C91.8636 91.0327 91.4545 92.6009 90.6278 93.973C89.8097 95.3366 88.6634 96.4105 87.1889 97.1946C85.723 97.9702 84.0185 98.358 82.0753 98.358ZM110.047 93.0909V91.7102C110.047 90.6619 110.268 89.6989 110.712 88.821C111.163 87.9347 111.815 87.2273 112.668 86.6989C113.528 86.1619 114.577 85.8935 115.812 85.8935C117.065 85.8935 118.118 86.1577 118.97 86.6861C119.831 87.2145 120.479 87.9219 120.913 88.8082C121.357 89.6861 121.578 90.6534 121.578 91.7102V93.0909C121.578 94.1392 121.357 95.1065 120.913 95.9929C120.47 96.8707 119.818 97.5739 118.957 98.1023C118.097 98.6392 117.048 98.9077 115.812 98.9077C114.56 98.9077 113.507 98.6392 112.655 98.1023C111.803 97.5739 111.155 96.8707 110.712 95.9929C110.268 95.1065 110.047 94.1392 110.047 93.0909ZM113.767 91.7102V93.0909C113.767 93.696 113.912 94.267 114.202 94.804C114.5 95.3409 115.037 95.6094 115.812 95.6094C116.588 95.6094 117.116 95.3452 117.398 94.8168C117.688 94.2884 117.832 93.7131 117.832 93.0909V91.7102C117.832 91.0881 117.696 90.5085 117.423 89.9716C117.151 89.4347 116.614 89.1662 115.812 89.1662C115.045 89.1662 114.513 89.4347 114.214 89.9716C113.916 90.5085 113.767 91.0881 113.767 91.7102ZM96.6108 78.108V76.7273C96.6108 75.6705 96.8366 74.7031 97.2884 73.8253C97.7401 72.9389 98.392 72.2315 99.2443 71.7031C100.105 71.1747 101.145 70.9105 102.364 70.9105C103.625 70.9105 104.682 71.1747 105.534 71.7031C106.386 72.2315 107.034 72.9389 107.477 73.8253C107.92 74.7031 108.142 75.6705 108.142 76.7273V78.108C108.142 79.1648 107.916 80.1321 107.464 81.0099C107.021 81.8878 106.369 82.5909 105.509 83.1193C104.656 83.6392 103.608 83.8991 102.364 83.8991C101.119 83.8991 100.067 83.6349 99.206 83.1065C98.3537 82.5696 97.706 81.8665 97.2628 80.9972C96.8281 80.1193 96.6108 79.1562 96.6108 78.108ZM100.357 76.7273V78.108C100.357 78.7301 100.501 79.3054 100.791 79.8338C101.089 80.3622 101.614 80.6264 102.364 80.6264C103.148 80.6264 103.68 80.3622 103.962 79.8338C104.251 79.3054 104.396 78.7301 104.396 78.108V76.7273C104.396 76.1051 104.26 75.5256 103.987 74.9886C103.714 74.4517 103.173 74.1832 102.364 74.1832C101.605 74.1832 101.081 74.456 100.791 75.0014C100.501 75.5469 100.357 76.1222 100.357 76.7273ZM98.2983 98L116.298 71.8182H119.648L101.648 98H98.2983Z" fill="#136FD4"/>
</svg>
