<svg width="171" height="170" viewBox="0 0 171 170" fill="none" xmlns="http://www.w3.org/2000/svg">
<circle cx="85.875" cy="85" r="85" transform="rotate(-90 85.875 85)" fill="#E0DFDF"/>
<circle cx="85.875" cy="85" r="85" transform="rotate(-90 85.875 85)" fill="#05E300"/>
<circle cx="85.8752" cy="85" r="74.8" fill="white"/>
<path d="M50.3883 71.8182V98H44.8528V77.0724H44.6994L38.7036 80.831V75.9219L45.1851 71.8182H50.3883ZM66.8766 98.5753C64.6777 98.5668 62.7856 98.0256 61.2004 96.9517C59.6237 95.8778 58.4092 94.3224 57.557 92.2855C56.7132 90.2486 56.2956 87.7983 56.3041 84.9347C56.3041 82.0795 56.726 79.6463 57.5697 77.6349C58.422 75.6236 59.6365 74.0937 61.2132 73.0455C62.7984 71.9886 64.6862 71.4602 66.8766 71.4602C69.0669 71.4602 70.9504 71.9886 72.5271 73.0455C74.1123 74.1023 75.3311 75.6364 76.1834 77.6477C77.0356 79.6506 77.4575 82.0795 77.449 84.9347C77.449 87.8068 77.0229 90.2614 76.1706 92.2983C75.3268 94.3352 74.1166 95.8906 72.5399 96.9645C70.9632 98.0384 69.0754 98.5753 66.8766 98.5753ZM66.8766 93.9858C68.3766 93.9858 69.574 93.2315 70.4689 91.723C71.3638 90.2145 71.807 87.9517 71.7984 84.9347C71.7984 82.9489 71.5939 81.2955 71.1848 79.9744C70.7842 78.6534 70.2132 77.6605 69.4717 76.9957C68.7388 76.331 67.8737 75.9986 66.8766 75.9986C65.3851 75.9986 64.1919 76.7443 63.297 78.2358C62.4021 79.7273 61.9504 81.9602 61.9419 84.9347C61.9419 86.946 62.1422 88.625 62.5427 89.9716C62.9518 91.3097 63.5271 92.3153 64.2686 92.9886C65.0101 93.6534 65.8794 93.9858 66.8766 93.9858ZM91.6617 98.5753C89.4628 98.5668 87.5708 98.0256 85.9856 96.9517C84.4089 95.8778 83.1944 94.3224 82.3421 92.2855C81.4984 90.2486 81.0807 87.7983 81.0893 84.9347C81.0893 82.0795 81.5111 79.6463 82.3549 77.6349C83.2072 75.6236 84.4217 74.0937 85.9984 73.0455C87.5836 71.9886 89.4714 71.4602 91.6617 71.4602C93.8521 71.4602 95.7356 71.9886 97.3123 73.0455C98.8975 74.1023 100.116 75.6364 100.969 77.6477C101.821 79.6506 102.243 82.0795 102.234 84.9347C102.234 87.8068 101.808 90.2614 100.956 92.2983C100.112 94.3352 98.9018 95.8906 97.3251 96.9645C95.7484 98.0384 93.8606 98.5753 91.6617 98.5753ZM91.6617 93.9858C93.1617 93.9858 94.3592 93.2315 95.254 91.723C96.1489 90.2145 96.5921 87.9517 96.5836 84.9347C96.5836 82.9489 96.379 81.2955 95.9699 79.9744C95.5694 78.6534 94.9984 77.6605 94.2569 76.9957C93.5239 76.331 92.6589 75.9986 91.6617 75.9986C90.1702 75.9986 88.9771 76.7443 88.0822 78.2358C87.1873 79.7273 86.7356 81.9602 86.7271 84.9347C86.7271 86.946 86.9273 88.625 87.3279 89.9716C87.737 91.3097 88.3123 92.3153 89.0538 92.9886C89.7952 93.6534 90.6646 93.9858 91.6617 93.9858ZM120.512 93.0909V91.7102C120.512 90.6619 120.734 89.6989 121.177 88.821C121.629 87.9347 122.281 87.2273 123.133 86.6989C123.994 86.1619 125.042 85.8935 126.278 85.8935C127.531 85.8935 128.583 86.1577 129.436 86.6861C130.296 87.2145 130.944 87.9219 131.379 88.8082C131.822 89.6861 132.043 90.6534 132.043 91.7102V93.0909C132.043 94.1392 131.822 95.1065 131.379 95.9929C130.936 96.8707 130.284 97.5739 129.423 98.1023C128.562 98.6392 127.514 98.9077 126.278 98.9077C125.025 98.9077 123.972 98.6392 123.12 98.1023C122.268 97.5739 121.62 96.8707 121.177 95.9929C120.734 95.1065 120.512 94.1392 120.512 93.0909ZM124.232 91.7102V93.0909C124.232 93.696 124.377 94.267 124.667 94.804C124.965 95.3409 125.502 95.6094 126.278 95.6094C127.053 95.6094 127.582 95.3452 127.863 94.8168C128.153 94.2884 128.298 93.7131 128.298 93.0909V91.7102C128.298 91.0881 128.161 90.5085 127.889 89.9716C127.616 89.4347 127.079 89.1662 126.278 89.1662C125.511 89.1662 124.978 89.4347 124.68 89.9716C124.382 90.5085 124.232 91.0881 124.232 91.7102ZM107.076 78.108V76.7273C107.076 75.6705 107.302 74.7031 107.754 73.8253C108.205 72.9389 108.857 72.2315 109.71 71.7031C110.57 71.1747 111.61 70.9105 112.829 70.9105C114.09 70.9105 115.147 71.1747 115.999 71.7031C116.852 72.2315 117.499 72.9389 117.943 73.8253C118.386 74.7031 118.607 75.6705 118.607 76.7273V78.108C118.607 79.1648 118.382 80.1321 117.93 81.0099C117.487 81.8878 116.835 82.5909 115.974 83.1193C115.122 83.6392 114.073 83.8991 112.829 83.8991C111.585 83.8991 110.532 83.6349 109.671 83.1065C108.819 82.5696 108.171 81.8665 107.728 80.9972C107.293 80.1193 107.076 79.1562 107.076 78.108ZM110.822 76.7273V78.108C110.822 78.7301 110.967 79.3054 111.257 79.8338C111.555 80.3622 112.079 80.6264 112.829 80.6264C113.613 80.6264 114.146 80.3622 114.427 79.8338C114.717 79.3054 114.862 78.7301 114.862 78.108V76.7273C114.862 76.1051 114.725 75.5256 114.453 74.9886C114.18 74.4517 113.639 74.1832 112.829 74.1832C112.07 74.1832 111.546 74.456 111.257 75.0014C110.967 75.5469 110.822 76.1222 110.822 76.7273ZM108.764 98L126.764 71.8182H130.113L112.113 98H108.764Z" fill="#136FD4"/>
</svg>
