<svg width="171" height="170" viewBox="0 0 171 170" fill="none" xmlns="http://www.w3.org/2000/svg">
<circle cx="85.375" cy="85" r="85" transform="rotate(-90 85.375 85)" fill="#E0DFDF"/>
<path d="M85.375 2C85.375 0.895428 86.2707 -0.00246042 87.375 0.02351C105.38 0.447063 122.804 6.58045 137.12 17.565C151.964 28.9557 162.636 44.9265 167.479 63.0004C172.322 81.0742 171.065 100.241 163.905 117.528C156.744 134.815 144.08 149.256 127.875 158.612C111.67 167.968 92.8316 171.715 74.2803 169.273C55.7289 166.83 38.5019 158.335 25.2709 145.104C12.04 131.873 3.54452 114.646 1.10218 96.0947C-1.25304 78.2051 2.14769 60.048 10.7832 44.2438C11.3128 43.2745 12.5383 42.9477 13.4949 43.5L82.375 83.2679C83.7083 84.0377 85.375 83.0755 85.375 81.5359L85.375 2Z" fill="#05E300"/>
<circle cx="85.3752" cy="85" r="74.8" fill="white"/>
<path d="M58.7642 98.358C56.7955 98.358 55.044 98.0384 53.5099 97.3991C51.9844 96.7514 50.7869 95.8693 49.9176 94.7528C49.0483 93.6364 48.6136 92.3707 48.6136 90.956C48.6136 89.8651 48.8608 88.8636 49.3551 87.9517C49.858 87.0312 50.5398 86.2685 51.4006 85.6634C52.2614 85.0497 53.2244 84.6577 54.2898 84.4872V84.3082C52.892 84.027 51.7585 83.3494 50.8892 82.2756C50.0199 81.1932 49.5852 79.9361 49.5852 78.5043C49.5852 77.1491 49.9815 75.9432 50.7741 74.8864C51.5668 73.821 52.6534 72.9858 54.0341 72.3807C55.4233 71.767 57 71.4602 58.7642 71.4602C60.5284 71.4602 62.1009 71.767 63.4815 72.3807C64.8707 72.9943 65.9616 73.8338 66.7543 74.8991C67.5469 75.956 67.9474 77.1577 67.956 78.5043C67.9474 79.9446 67.5043 81.2017 66.6264 82.2756C65.7486 83.3494 64.6236 84.027 63.2514 84.3082V84.4872C64.2997 84.6577 65.25 85.0497 66.1023 85.6634C66.9631 86.2685 67.6449 87.0312 68.1477 87.9517C68.6591 88.8636 68.919 89.8651 68.9276 90.956C68.919 92.3707 68.4801 93.6364 67.6108 94.7528C66.7415 95.8693 65.5398 96.7514 64.0057 97.3991C62.4801 98.0384 60.733 98.358 58.7642 98.358ZM58.7642 94.2926C59.642 94.2926 60.4091 94.1349 61.0653 93.8196C61.7216 93.4957 62.233 93.0526 62.5994 92.4901C62.9744 91.919 63.1619 91.2628 63.1619 90.5213C63.1619 89.7628 62.9702 89.0938 62.5866 88.5142C62.2031 87.9261 61.6832 87.4659 61.027 87.1335C60.3707 86.7926 59.6165 86.6222 58.7642 86.6222C57.9205 86.6222 57.1662 86.7926 56.5014 87.1335C55.8366 87.4659 55.3125 87.9261 54.929 88.5142C54.554 89.0938 54.3665 89.7628 54.3665 90.5213C54.3665 91.2628 54.5497 91.919 54.9162 92.4901C55.2827 93.0526 55.7983 93.4957 56.4631 93.8196C57.1278 94.1349 57.8949 94.2926 58.7642 94.2926ZM58.7642 82.5952C59.4972 82.5952 60.1491 82.446 60.7202 82.1477C61.2912 81.8494 61.7386 81.4361 62.0625 80.9077C62.3864 80.3793 62.5483 79.7699 62.5483 79.0795C62.5483 78.3977 62.3864 77.8011 62.0625 77.2898C61.7386 76.7699 61.2955 76.3651 60.733 76.0753C60.1705 75.777 59.5142 75.6278 58.7642 75.6278C58.0227 75.6278 57.3665 75.777 56.7955 76.0753C56.2244 76.3651 55.777 76.7699 55.4531 77.2898C55.1378 77.8011 54.9801 78.3977 54.9801 79.0795C54.9801 79.7699 55.142 80.3793 55.4659 80.9077C55.7898 81.4361 56.2372 81.8494 56.8082 82.1477C57.3793 82.446 58.0312 82.5952 58.7642 82.5952ZM82.3604 98.358C80.5536 98.358 78.9428 98.0256 77.5281 97.3608C76.1218 96.696 75.0053 95.7798 74.1786 94.6122C73.3519 93.4446 72.9215 92.1065 72.8874 90.598H78.2567C78.3164 91.6122 78.7425 92.4347 79.5352 93.0653C80.3278 93.696 81.2695 94.0114 82.3604 94.0114C83.2298 94.0114 83.9968 93.8196 84.6616 93.4361C85.3349 93.044 85.859 92.5028 86.234 91.8125C86.6175 91.1136 86.8093 90.3125 86.8093 89.4091C86.8093 88.4886 86.6133 87.679 86.2212 86.9801C85.8377 86.2812 85.305 85.7358 84.6232 85.3438C83.9414 84.9517 83.1616 84.7514 82.2837 84.7429C81.5167 84.7429 80.771 84.9006 80.0465 85.2159C79.3306 85.5312 78.7724 85.9616 78.3718 86.5071L73.4499 85.625L74.69 71.8182H90.6957V76.3438H79.2539L78.5763 82.902H78.7298C79.19 82.2543 79.8846 81.7173 80.8136 81.2912C81.7425 80.8651 82.7823 80.652 83.9329 80.652C85.5096 80.652 86.9158 81.0227 88.1516 81.7642C89.3874 82.5057 90.3633 83.5241 91.0792 84.8196C91.7951 86.1065 92.1488 87.5895 92.1403 89.2685C92.1488 91.0327 91.7397 92.6009 90.913 93.973C90.0948 95.3366 88.9485 96.4105 87.4741 97.1946C86.0082 97.9702 84.3036 98.358 82.3604 98.358ZM110.332 93.0909V91.7102C110.332 90.6619 110.554 89.6989 110.997 88.821C111.449 87.9347 112.1 87.2273 112.953 86.6989C113.814 86.1619 114.862 85.8935 116.098 85.8935C117.35 85.8935 118.403 86.1577 119.255 86.6861C120.116 87.2145 120.764 87.9219 121.199 88.8082C121.642 89.6861 121.863 90.6534 121.863 91.7102V93.0909C121.863 94.1392 121.642 95.1065 121.199 95.9929C120.755 96.8707 120.103 97.5739 119.243 98.1023C118.382 98.6392 117.333 98.9077 116.098 98.9077C114.845 98.9077 113.792 98.6392 112.94 98.1023C112.088 97.5739 111.44 96.8707 110.997 95.9929C110.554 95.1065 110.332 94.1392 110.332 93.0909ZM114.052 91.7102V93.0909C114.052 93.696 114.197 94.267 114.487 94.804C114.785 95.3409 115.322 95.6094 116.098 95.6094C116.873 95.6094 117.402 95.3452 117.683 94.8168C117.973 94.2884 118.118 93.7131 118.118 93.0909V91.7102C118.118 91.0881 117.981 90.5085 117.708 89.9716C117.436 89.4347 116.899 89.1662 116.098 89.1662C115.331 89.1662 114.798 89.4347 114.5 89.9716C114.201 90.5085 114.052 91.0881 114.052 91.7102ZM96.896 78.108V76.7273C96.896 75.6705 97.1218 74.7031 97.5735 73.8253C98.0252 72.9389 98.6772 72.2315 99.5295 71.7031C100.39 71.1747 101.43 70.9105 102.649 70.9105C103.91 70.9105 104.967 71.1747 105.819 71.7031C106.672 72.2315 107.319 72.9389 107.762 73.8253C108.206 74.7031 108.427 75.6705 108.427 76.7273V78.108C108.427 79.1648 108.201 80.1321 107.75 81.0099C107.306 81.8878 106.654 82.5909 105.794 83.1193C104.941 83.6392 103.893 83.8991 102.649 83.8991C101.404 83.8991 100.352 83.6349 99.4911 83.1065C98.6388 82.5696 97.9911 81.8665 97.5479 80.9972C97.1133 80.1193 96.896 79.1562 96.896 78.108ZM100.642 76.7273V78.108C100.642 78.7301 100.787 79.3054 101.076 79.8338C101.375 80.3622 101.899 80.6264 102.649 80.6264C103.433 80.6264 103.966 80.3622 104.247 79.8338C104.537 79.3054 104.681 78.7301 104.681 78.108V76.7273C104.681 76.1051 104.545 75.5256 104.272 74.9886C104 74.4517 103.458 74.1832 102.649 74.1832C101.89 74.1832 101.366 74.456 101.076 75.0014C100.787 75.5469 100.642 76.1222 100.642 76.7273ZM98.5835 98L116.583 71.8182H119.933L101.933 98H98.5835Z" fill="#136FD4"/>
</svg>
