<svg width="180" height="34" viewBox="0 0 180 34" fill="none" xmlns="http://www.w3.org/2000/svg">
<path d="M0.771484 29.9305C1.40235 29.9026 1.92348 29.8189 2.33491 29.6794C2.77377 29.5399 3.10291 29.2191 3.32234 28.7169C3.5692 28.2148 3.69263 27.4057 3.69263 26.2898V10.2628C3.69263 9.50954 3.70635 8.7842 3.73377 8.08677C3.78863 7.38934 3.82977 6.85928 3.8572 6.49662C3.41835 6.52451 2.86977 6.55242 2.21148 6.58031C1.5532 6.58031 1.0732 6.59426 0.771484 6.62215V3.4L12.7441 3.35815C15.4595 3.35815 17.8046 3.77662 19.7795 4.61354C21.7817 5.42257 23.4138 6.52451 24.6755 7.91939C25.9647 9.31426 26.9246 10.8765 27.5555 12.6062C28.1864 14.3079 28.5018 16.0235 28.5018 17.7532C28.5018 19.4549 28.2 21.1846 27.5966 22.9422C27.0206 24.6997 26.1017 26.3177 24.8401 27.7963C23.5784 29.2469 21.9327 30.4326 19.9029 31.3532C17.8732 32.246 15.4183 32.6923 12.5383 32.6923H0.771484V29.9305ZM9.65834 25.8295C9.65834 26.5828 9.64462 27.3081 9.6172 28.0055C9.58977 28.7029 9.54863 29.2331 9.49377 29.5957C9.76805 29.5678 10.1383 29.5678 10.6046 29.5957C11.0983 29.5957 11.6058 29.6097 12.1269 29.6375C12.6481 29.6375 13.0732 29.6375 13.4023 29.6375C14.9109 29.6375 16.2001 29.3306 17.2698 28.7169C18.3669 28.1032 19.2584 27.2802 19.9441 26.248C20.6572 25.1879 21.1783 24.0023 21.5075 22.6911C21.8366 21.3799 22.0012 20.0269 22.0012 18.632C22.0012 15.7865 21.6172 13.4571 20.8492 11.6437C20.0812 9.83036 18.9978 8.47734 17.5989 7.58462C16.2274 6.69189 14.5817 6.21765 12.6618 6.16185C12.0035 6.13395 11.4412 6.20369 10.9749 6.37108C10.5361 6.51057 10.2069 6.83138 9.98748 7.33354C9.76805 7.83569 9.65834 8.63077 9.65834 9.71877V25.8295ZM31.4593 29.9723C32.2273 29.9723 32.7759 29.8189 33.105 29.512C33.4342 29.2051 33.6399 28.7728 33.7222 28.2148C33.8318 27.6289 33.8867 26.9734 33.8867 26.248V19.2178C33.8867 18.7157 33.9004 18.1577 33.9279 17.544C33.9553 16.9023 33.9964 16.2746 34.0513 15.6609C33.6124 15.6888 33.0913 15.7168 32.4877 15.7446C31.9119 15.7446 31.4729 15.7586 31.1713 15.7865V12.6062H32.817C33.8867 12.6062 34.8604 12.4667 35.7382 12.1877C36.6433 11.9087 37.2329 11.6297 37.5073 11.3508H39.5233C39.5781 11.6297 39.6192 12.1598 39.6467 12.9409C39.6741 13.6942 39.6879 14.3637 39.6879 14.9495C40.4284 14.0289 41.1279 13.2897 41.7862 12.7317C42.4444 12.1737 43.089 11.7692 43.7199 11.5182C44.3782 11.2392 45.0364 11.0997 45.6947 11.0997C46.6546 11.0997 47.4913 11.3787 48.2044 11.9366C48.9175 12.4667 49.2742 13.3454 49.2742 14.5729C49.2742 14.9914 49.1781 15.4377 48.9862 15.912C48.7941 16.3583 48.4924 16.7349 48.081 17.0418C47.6696 17.3488 47.1072 17.5022 46.3942 17.5022C45.8455 17.5022 45.2833 17.3348 44.7073 17C44.1313 16.6652 43.8022 16.0235 43.7199 15.0751C43.1713 15.0751 42.6226 15.3122 42.0742 15.7865C41.5255 16.2328 41.0318 16.7768 40.593 17.4185C40.1816 18.0322 39.8936 18.6041 39.729 19.1342V25.9551C39.729 26.3457 39.7153 26.9035 39.6879 27.6289C39.6604 28.3263 39.6192 28.9959 39.5644 29.6375C40.0033 29.5817 40.4832 29.5538 41.0044 29.5538C41.5529 29.526 41.9644 29.512 42.2387 29.512V32.6923H31.4593V29.9723ZM55.662 33.0787C54.6977 33.0787 53.8698 32.7319 53.1782 32.0385C52.4964 31.3351 52.1554 30.493 52.1554 29.5123C52.1554 28.5414 52.4964 27.7092 53.1782 27.0157C53.8698 26.3223 54.6977 25.9755 55.662 25.9755C56.5971 25.9755 57.4153 26.3223 58.1165 27.0157C58.8179 27.7092 59.1685 28.5414 59.1685 29.5123C59.1685 30.1661 59.0029 30.7654 58.6717 31.3103C58.3503 31.8453 57.9266 32.2762 57.4006 32.6031C56.8747 32.9201 56.2951 33.0787 55.662 33.0787Z" fill="#136FD4"/>
<path d="M80.4737 12.7733C80.2268 11.211 79.788 9.91379 79.1571 8.88159C78.5262 7.82149 77.7171 7.02641 76.7297 6.49636C75.7696 5.96632 74.6452 5.71524 73.356 5.74313C72.1766 5.74313 71.1343 6.0779 70.2291 6.74744C69.3514 7.41698 68.9125 8.28179 68.9125 9.3419C68.9125 10.2067 69.1456 10.9599 69.612 11.6016C70.1057 12.2432 70.8462 12.843 71.8337 13.401C72.8211 13.959 74.0692 14.5587 75.5777 15.2004C76.62 15.6188 77.6897 16.107 78.7868 16.665C79.8839 17.223 80.8989 17.8925 81.8314 18.6736C82.7639 19.4268 83.5183 20.3196 84.0943 21.3517C84.6703 22.3561 84.9583 23.5417 84.9583 24.9087C84.9583 26.5547 84.5194 28.0193 83.6417 29.3025C82.7639 30.5858 81.5296 31.5901 79.9388 32.3154C78.3754 33.0128 76.5377 33.3616 74.4257 33.3616C73.3286 33.3616 72.1354 33.1802 70.8463 32.8176C69.5846 32.4828 68.3914 31.9807 67.2668 31.3111L67.3903 33.0687H64.2223V23.2767H66.9377C67.3217 25.6201 68.1994 27.3916 69.5708 28.5911C70.9697 29.7628 72.6291 30.3487 74.5491 30.3487C75.5365 30.3487 76.4005 30.1673 77.1411 29.8047C77.8817 29.442 78.4577 28.9677 78.8691 28.3819C79.2805 27.7682 79.4862 27.1125 79.4862 26.4151C79.4862 25.4387 79.1433 24.6297 78.4577 23.9881C77.7994 23.3464 76.9628 22.8024 75.948 22.3561C74.9605 21.9097 73.9457 21.4773 72.9034 21.0588C71.5868 20.5008 70.3525 19.915 69.2005 19.3013C68.0759 18.6596 67.0885 17.9344 66.2383 17.1253C65.388 16.3162 64.7297 15.3956 64.2634 14.3634C63.7971 13.3033 63.564 12.0898 63.564 10.7228C63.564 9.85801 63.7285 8.96529 64.0577 8.04467C64.3868 7.09616 64.9217 6.23133 65.6623 5.45021C66.4028 4.64118 67.3903 3.98559 68.6245 3.48344C69.8588 2.98129 71.3811 2.73021 73.1914 2.73021C74.2885 2.73021 75.4816 2.89759 76.7708 3.23236C78.0874 3.56713 79.212 4.06929 80.1445 4.73882L79.98 3.02313H83.1891V12.7733H80.4737ZM99.5087 32.6921C99.4538 32.3014 99.4126 31.9807 99.3853 31.7296C99.3853 31.4507 99.3715 31.1298 99.3441 30.7671C98.4116 31.7156 97.4242 32.3851 96.3818 32.7757C95.3395 33.1664 94.2835 33.3616 93.2138 33.3616C91.4584 33.3616 90.087 32.8316 89.0995 31.7714C88.1121 30.7113 87.6184 29.3862 87.6184 27.7961C87.6184 26.457 87.9475 25.3131 88.6058 24.3647C89.2915 23.4162 90.183 22.649 91.2801 22.0631C92.4047 21.4494 93.639 20.9891 94.983 20.6822C96.3544 20.3474 97.7258 20.1522 99.0973 20.0964V17.9204C99.0973 17.195 99.0012 16.5394 98.8093 15.9536C98.6447 15.3677 98.3429 14.9074 97.9041 14.5727C97.4927 14.2379 96.9029 14.0845 96.135 14.1124C95.6139 14.1402 95.1064 14.2519 94.6127 14.4471C94.119 14.6424 93.6938 14.9214 93.3372 15.2841C93.5567 15.5351 93.6938 15.8141 93.7487 16.121C93.8036 16.3999 93.831 16.651 93.831 16.8742C93.831 17.4322 93.6115 18.018 93.1727 18.6317C92.7339 19.2176 92.0344 19.4965 91.0744 19.4687C90.2515 19.4408 89.6206 19.1479 89.1818 18.5899C88.743 18.0319 88.5235 17.3764 88.5235 16.6231C88.5235 15.5073 88.9076 14.5448 89.6755 13.7357C90.471 12.8988 91.527 12.2572 92.8435 11.8108C94.1601 11.3366 95.6139 11.0994 97.2047 11.0994C99.6184 11.0994 101.484 11.7411 102.8 13.0244C104.144 14.2797 104.816 16.3024 104.816 19.0921C104.816 20.0405 104.816 20.8496 104.816 21.5191C104.816 22.1887 104.802 22.8582 104.775 23.5277C104.775 24.1973 104.775 25.0064 104.775 25.9548C104.775 26.3454 104.761 26.9033 104.734 27.6287C104.706 28.3261 104.665 28.9956 104.61 29.6373C105.077 29.5814 105.57 29.5536 106.092 29.5536C106.613 29.5257 107.01 29.5117 107.285 29.5117V32.6921H99.5087ZM99.0561 23.0674C98.2882 23.1511 97.5612 23.2907 96.8755 23.4859C96.1899 23.6811 95.5863 23.9462 95.0652 24.281C94.5715 24.6157 94.1739 25.0202 93.8721 25.4945C93.5979 25.9688 93.4607 26.4988 93.4607 27.0847C93.4881 27.8658 93.7349 28.4237 94.2013 28.7585C94.6676 29.0933 95.2024 29.2607 95.8058 29.2607C96.4367 29.2607 97.0264 29.1211 97.575 28.8422C98.1236 28.5633 98.6173 28.2005 99.0561 27.7542C99.0561 27.4753 99.0561 27.2102 99.0561 26.9591C99.0561 26.6802 99.0561 26.4011 99.0561 26.1222C99.0561 25.6201 99.0561 25.1179 99.0561 24.6157C99.0561 24.0857 99.0561 23.5696 99.0561 23.0674ZM108.989 29.9721C109.757 29.9721 110.305 29.8187 110.634 29.5117C110.991 29.2048 111.21 28.7725 111.293 28.2145C111.375 27.6287 111.416 26.9731 111.416 26.2477V9.04898C111.416 8.54682 111.43 7.97493 111.457 7.33328C111.485 6.66375 111.526 6.0221 111.581 5.40836C111.142 5.43626 110.621 5.46416 110.017 5.49205C109.441 5.49205 109.002 5.50601 108.701 5.5339V2.35359C109.99 2.35359 111.059 2.28385 111.91 2.14436C112.787 2.00487 113.473 1.83749 113.967 1.64221C114.488 1.44693 114.845 1.26559 115.037 1.09821H117.258V25.9548C117.258 26.3454 117.245 26.9033 117.217 27.6287C117.19 28.3261 117.149 28.9956 117.094 29.6373C117.56 29.5814 118.054 29.5536 118.575 29.5536C119.096 29.5257 119.494 29.5117 119.768 29.5117V32.6921H108.989V29.9721ZM133.902 32.6921C133.847 32.3014 133.806 31.9807 133.779 31.7296C133.779 31.4507 133.765 31.1298 133.738 30.7671C132.804 31.7156 131.817 32.3851 130.775 32.7757C129.733 33.1664 128.677 33.3616 127.607 33.3616C125.851 33.3616 124.48 32.8316 123.492 31.7714C122.505 30.7113 122.011 29.3862 122.011 27.7961C122.011 26.457 122.34 25.3131 122.999 24.3647C123.684 23.4162 124.576 22.649 125.673 22.0631C126.798 21.4494 128.032 20.9891 129.376 20.6822C130.747 20.3474 132.119 20.1522 133.491 20.0964V17.9204C133.491 17.195 133.394 16.5394 133.203 15.9536C133.038 15.3677 132.736 14.9074 132.298 14.5727C131.886 14.2379 131.296 14.0845 130.528 14.1124C130.006 14.1402 129.5 14.2519 129.006 14.4471C128.512 14.6424 128.087 14.9214 127.73 15.2841C127.95 15.5351 128.087 15.8141 128.142 16.121C128.196 16.3999 128.224 16.651 128.224 16.8742C128.224 17.4322 128.004 18.018 127.566 18.6317C127.127 19.2176 126.427 19.4965 125.467 19.4687C124.644 19.4408 124.013 19.1479 123.575 18.5899C123.136 18.0319 122.916 17.3764 122.916 16.6231C122.916 15.5073 123.3 14.5448 124.068 13.7357C124.864 12.8988 125.92 12.2572 127.236 11.8108C128.553 11.3366 130.006 11.0994 131.598 11.0994C134.011 11.0994 135.877 11.7411 137.194 13.0244C138.537 14.2797 139.21 16.3024 139.21 19.0921C139.21 20.0405 139.21 20.8496 139.21 21.5191C139.21 22.1887 139.195 22.8582 139.168 23.5277C139.168 24.1973 139.168 25.0064 139.168 25.9548C139.168 26.3454 139.154 26.9033 139.127 27.6287C139.099 28.3261 139.058 28.9956 139.004 29.6373C139.469 29.5814 139.963 29.5536 140.485 29.5536C141.006 29.5257 141.403 29.5117 141.678 29.5117V32.6921H133.902ZM133.45 23.0674C132.681 23.1511 131.954 23.2907 131.269 23.4859C130.582 23.6811 129.979 23.9462 129.459 24.281C128.965 24.6157 128.567 25.0202 128.265 25.4945C127.991 25.9688 127.854 26.4988 127.854 27.0847C127.881 27.8658 128.128 28.4237 128.595 28.7585C129.06 29.0933 129.595 29.2607 130.199 29.2607C130.829 29.2607 131.419 29.1211 131.968 28.8422C132.516 28.5633 133.01 28.2005 133.45 27.7542C133.45 27.4753 133.45 27.2102 133.45 26.9591C133.45 26.6802 133.45 26.4011 133.45 26.1222C133.45 25.6201 133.45 25.1179 133.45 24.6157C133.45 24.0857 133.45 23.5696 133.45 23.0674ZM144.04 32.6921V29.9721C144.808 29.9721 145.357 29.8187 145.686 29.5117C146.015 29.2048 146.221 28.7725 146.303 28.2145C146.412 27.6287 146.467 26.9731 146.467 26.2477V19.2176C146.467 18.7154 146.48 18.1574 146.509 17.5437C146.536 16.9021 146.577 16.2744 146.632 15.6607C146.192 15.6885 145.672 15.7165 145.069 15.7444C144.493 15.7444 144.053 15.7584 143.752 15.7862V12.6059C145.013 12.6059 146.083 12.5362 146.961 12.3967C147.838 12.2572 148.525 12.0898 149.018 11.8945C149.539 11.6992 149.895 11.5179 150.088 11.3505H152.104C152.158 11.6295 152.186 11.9782 152.186 12.3967C152.213 12.8151 152.24 13.1639 152.269 13.4428C153.201 12.7175 154.202 12.1456 155.272 11.7271C156.369 11.3087 157.397 11.0994 158.358 11.0994C159.619 11.0994 160.662 11.3366 161.485 11.8108C162.307 12.2572 162.966 12.9407 163.459 13.8613C164.447 13.0244 165.529 12.3548 166.71 11.8527C167.916 11.3505 169.068 11.0994 170.166 11.0994C172.387 11.0994 174.06 11.755 175.185 13.0662C176.337 14.3494 176.913 16.5953 176.913 19.8034V25.9548C176.913 26.3454 176.899 26.9033 176.872 27.6287C176.844 28.3261 176.803 28.9956 176.749 29.6373C177.187 29.5814 177.667 29.5536 178.189 29.5536C178.736 29.5257 179.148 29.5117 179.423 29.5117V32.6921H169.014V29.9721C169.644 29.9721 170.096 29.8187 170.371 29.5117C170.672 29.2048 170.865 28.7725 170.947 28.2145C171.03 27.6287 171.071 26.9731 171.071 26.2477V19.8453C171.043 18.0319 170.742 16.7765 170.166 16.0791C169.617 15.3817 168.876 15.019 167.944 14.9911C167.23 14.9633 166.558 15.0888 165.928 15.3677C165.324 15.6467 164.776 15.9814 164.282 16.3721C164.419 16.93 164.515 17.5437 164.57 18.2133C164.624 18.8828 164.653 19.5942 164.653 20.3474C164.653 21.2959 164.653 22.2305 164.653 23.1511C164.653 24.0717 164.653 25.0064 164.653 25.9548C164.653 26.3454 164.638 26.9033 164.611 27.6287C164.583 28.3261 164.542 28.9956 164.488 29.6373C164.926 29.5814 165.406 29.5536 165.928 29.5536C166.449 29.5257 166.86 29.5117 167.162 29.5117V32.6921H156.547V29.9721C157.26 29.9721 157.768 29.8187 158.07 29.5117C158.399 29.2048 158.605 28.7725 158.687 28.2145C158.769 27.6287 158.81 26.9731 158.81 26.2477L158.769 19.7197C158.769 17.9064 158.508 16.665 157.987 15.9954C157.465 15.3259 156.739 14.9771 155.807 14.9493C155.12 14.9493 154.476 15.1027 153.873 15.4096C153.297 15.7165 152.775 16.0791 152.31 16.4976C152.31 16.8602 152.31 17.209 152.31 17.5437C152.31 17.8785 152.31 18.2273 152.31 18.5899V25.9548C152.31 26.3454 152.296 26.9033 152.269 27.6287C152.24 28.3261 152.199 28.9956 152.145 29.6373C152.584 29.5814 153.036 29.5536 153.503 29.5536C153.968 29.5257 154.339 29.5117 154.614 29.5117V32.6921H144.04Z" fill="#141414"/>
</svg>
